<?xml version="1.0" encoding="utf-8"?>
<!-- Generator: Adobe Illustrator 18.1.1, SVG Export Plug-In . SVG Version: 6.00 Build 0)  -->
<svg version="1.1" id="Layer_1" xmlns="http://www.w3.org/2000/svg" xmlns:xlink="http://www.w3.org/1999/xlink" x="0px" y="0px"
	 viewBox="0 0 400 400" enable-background="new 0 0 400 400" xml:space="preserve">
<g id="Folders_x40_2x.png">
	<g>
		<path fill="#FFFFFF" d="M260.6,151.5h-72.7c-24.2,0-24.2-24.2-48.5-24.2H90.9c-13.4,0-24.2,10.9-24.2,24.2V297
			c0,13.4,10.9,24.2,24.2,24.2h169.7c13.4,0,24.2-10.8,24.2-24.2V175.8C284.8,162.4,274,151.5,260.6,151.5z M272.7,297
			c0,6.7-5.4,12.1-12.1,12.1H90.9c-6.7,0-12.1-5.4-12.1-12.1v-97h193.9V297z M272.7,187.9H78.8v-36.4c0-6.7,5.4-12.1,12.1-12.1h48.5
			c18.2,0,18.2,24.2,48.5,24.2h72.7c6.7,0,12.1,5.4,12.1,12.1V187.9z M309.1,103h-72.7c-24.2,0-24.2-24.2-48.5-24.2h-48.5
			c-13.4,0-24.2,10.9-24.2,24.2v6.1c0,3.3,2.7,6.1,6.1,6.1c3.3,0,6.1-2.7,6.1-6.1V103c0-6.7,5.4-12.1,12.1-12.1h48.5
			c18.2,0,18.2,24.2,48.5,24.2h72.7c6.7,0,12.1,5.4,12.1,12.1v121.2c0,6.7-5.4,12.1-12.1,12.1H303c-3.3,0-6.1,2.7-6.1,6.1
			c0,3.3,2.7,6.1,6.1,6.1h6.1c13.4,0,24.2-10.8,24.2-24.2V127.3C333.3,113.9,322.5,103,309.1,103z"/>
	</g>
</g>
</svg>
