<?xml version="1.0" encoding="utf-8"?>
<!-- Generator: Adobe Illustrator 18.1.1, SVG Export Plug-In . SVG Version: 6.00 Build 0)  -->
<svg version="1.1" xmlns="http://www.w3.org/2000/svg" xmlns:xlink="http://www.w3.org/1999/xlink" x="0px" y="0px"
	 viewBox="0 0 400 400" enable-background="new 0 0 400 400" xml:space="preserve">
<g id="Layer_1_copy">
	<rect fill="#1A2227" width="400" height="400"/>
	<g id="Filter_x40_2x.png_2_">
		<g>
			<path fill="#FFFFFF" d="M200,66.7C133.1,66.7,78.8,83,78.8,103c0,72.7,97,84.8,97,145.4v6c0,0,0,0,0,0c0,0,0,0,0,0
				c0,8.9,0,16.7,0.1,23.7c0,0.2-0.1,0.3-0.1,0.5c0,0.2,0.1,0.4,0.1,0.6c0.5,45.3,3.9,54,24.1,54c24.2,0,24.2-12.1,24.2-84.8
				c0-60.6,97-72.7,97-145.4C321.2,83,266.9,66.7,200,66.7z M261.8,173.6c-24.4,19.8-49.7,40.2-49.7,74.9c0,35,0,56.1-2.7,66.7
				c-1.3,5.4-1.5,6-9.5,6s-8.1-0.6-9.5-6c-1.6-6.3-2.2-16.2-2.5-30.4h5.9c3.3,0,6.1-2.7,6.1-6.1c0-3.3-2.7-6.1-6.1-6.1h-6
				c0-3.8,0-7.8,0-12.1h6.1c3.3,0,6.1-2.7,6.1-6.1c0-3.3-2.7-6.1-6.1-6.1h-6.1c0-34.7-25.2-55.1-49.7-74.9
				c-19.6-15.9-38.4-31.1-44.9-53.3c20.5,11.4,60.6,19.1,106.7,19.1c46.1,0,86.1-7.7,106.6-19.1
				C300.1,142.5,281.4,157.7,261.8,173.6z M200,127.3c-60.2,0-109.1-10.9-109.1-24.2c0-13.4,48.8-24.2,109.1-24.2
				S309.1,89.7,309.1,103C309.1,116.4,260.2,127.3,200,127.3z"/>
		</g>
	</g>
</g>
<g id="Layer_1" display="none">
	<g id="Filter_x40_2x.png" display="inline">
		<g>
			<path fill="#FFFFFF" d="M200,66.7C133.1,66.7,78.8,83,78.8,103c0,72.7,97,84.8,97,145.4v6c0,0,0,0,0,0c0,0,0,0,0,0
				c0,8.9,0,16.7,0.1,23.7c0,0.2-0.1,0.3-0.1,0.5c0,0.2,0.1,0.4,0.1,0.6c0.5,45.3,3.9,54,24.1,54c24.2,0,24.2-12.1,24.2-84.8
				c0-60.6,97-72.7,97-145.4C321.2,83,266.9,66.7,200,66.7z M261.8,173.6c-24.4,19.8-49.7,40.2-49.7,74.9c0,35,0,56.1-2.7,66.7
				c-1.3,5.4-1.5,6-9.5,6s-8.1-0.6-9.5-6c-1.6-6.3-2.2-16.2-2.5-30.4h5.9c3.3,0,6.1-2.7,6.1-6.1c0-3.3-2.7-6.1-6.1-6.1h-6
				c0-3.8,0-7.8,0-12.1h6.1c3.3,0,6.1-2.7,6.1-6.1c0-3.3-2.7-6.1-6.1-6.1h-6.1c0-34.7-25.2-55.1-49.7-74.9
				c-19.6-15.9-38.4-31.1-44.9-53.3c20.5,11.4,60.6,19.1,106.7,19.1c46.1,0,86.1-7.7,106.6-19.1
				C300.1,142.5,281.4,157.7,261.8,173.6z M200,127.3c-60.2,0-109.1-10.9-109.1-24.2c0-13.4,48.8-24.2,109.1-24.2
				S309.1,89.7,309.1,103C309.1,116.4,260.2,127.3,200,127.3z"/>
		</g>
	</g>
</g>
</svg>
