<?xml version="1.0" encoding="utf-8"?>
<!-- Generator: Adobe Illustrator 18.1.1, SVG Export Plug-In . SVG Version: 6.00 Build 0)  -->
<svg version="1.1" xmlns="http://www.w3.org/2000/svg" xmlns:xlink="http://www.w3.org/1999/xlink" x="0px" y="0px"
	 viewBox="0 0 400 400" enable-background="new 0 0 400 400" xml:space="preserve">
<g id="Layer_1_copy">
	<rect fill="#1A2227" width="400" height="400"/>
	<g id="Write_x40_2x.png_2_">
		<g>
			<path fill="#FFFFFF" d="M327.3,157.6c-3.3,0-6.1,2.7-6.1,6.1V297c0,13.4-10.9,24.2-24.2,24.2H103c-13.4,0-24.2-10.9-24.2-24.2
				V103c0-13.4,10.9-24.2,24.2-24.2h133.3c3.3,0,6.1-2.7,6.1-6.1c0-3.3-2.7-6.1-6.1-6.1H103C83,66.7,66.7,83,66.7,103V297
				c0,20.1,16.3,36.4,36.4,36.4H297c20.1,0,36.4-16.3,36.4-36.4V163.6C333.3,160.3,330.6,157.6,327.3,157.6z M133.3,266.7l51.7-8.9
				l139.4-139.4c5.5-5.5,8.9-13.1,8.9-21.4c0-16.7-13.6-30.3-30.3-30.3c-8.4,0-15.9,3.4-21.4,8.9L142.2,214.9L133.3,266.7z
				 M290.2,84.1c3.3-3.3,7.8-5.3,12.9-5.3c10,0,18.2,8.1,18.2,18.2c0,5-2,9.6-5.3,12.9l-7.8,7.8L282.3,92L290.2,84.1z M273.8,100.5
				l25.7,25.7L187.9,237.8v-25.7h-25.7L273.8,100.5z M153.2,224.2h22.6v22.6l-27.3,4.7L153.2,224.2z"/>
		</g>
	</g>
</g>
<g id="Layer_1" display="none">
	<g id="Write_x40_2x.png" display="inline">
		<g>
			<path fill="#FFFFFF" d="M327.3,157.6c-3.3,0-6.1,2.7-6.1,6.1V297c0,13.4-10.9,24.2-24.2,24.2H103c-13.4,0-24.2-10.9-24.2-24.2
				V103c0-13.4,10.9-24.2,24.2-24.2h133.3c3.3,0,6.1-2.7,6.1-6.1c0-3.3-2.7-6.1-6.1-6.1H103C83,66.7,66.7,83,66.7,103V297
				c0,20.1,16.3,36.4,36.4,36.4H297c20.1,0,36.4-16.3,36.4-36.4V163.6C333.3,160.3,330.6,157.6,327.3,157.6z M133.3,266.7l51.7-8.9
				l139.4-139.4c5.5-5.5,8.9-13.1,8.9-21.4c0-16.7-13.6-30.3-30.3-30.3c-8.4,0-15.9,3.4-21.4,8.9L142.2,214.9L133.3,266.7z
				 M290.2,84.1c3.3-3.3,7.8-5.3,12.9-5.3c10,0,18.2,8.1,18.2,18.2c0,5-2,9.6-5.3,12.9l-7.8,7.8L282.3,92L290.2,84.1z M273.8,100.5
				l25.7,25.7L187.9,237.8v-25.7h-25.7L273.8,100.5z M153.2,224.2h22.6v22.6l-27.3,4.7L153.2,224.2z"/>
		</g>
	</g>
</g>
</svg>
