<?xml version="1.0" encoding="utf-8"?>
<!-- Generator: Adobe Illustrator 18.1.1, SVG Export Plug-In . SVG Version: 6.00 Build 0)  -->
<svg version="1.1" xmlns="http://www.w3.org/2000/svg" xmlns:xlink="http://www.w3.org/1999/xlink" x="0px" y="0px"
	 viewBox="0 0 400 400" enable-background="new 0 0 400 400" xml:space="preserve">
<g id="Layer_1_copy">
	<rect fill="#1A2227" width="400" height="400"/>
	<g id="Floppy_Disk_2_2_">
		<g>
			<path fill="#FFFFFF" d="M224.2,139.4h24.2V90.9h-24.2V139.4z M212.1,236.4h-72.7v12.1h72.7V236.4z M321.2,103l-36.4-36.4H90.9
				c-13.4,0-24.2,10.9-24.2,24.2v218.2c0,13.4,10.9,24.2,24.2,24.2h218.2c13.4,0,24.2-10.8,24.2-24.2V115.2L321.2,103z M139.4,78.8
				h121.2v72.7H139.4V78.8z M284.8,321.2H115.2V212.1h169.7V321.2z M321.2,309.1c0,6.7-5.4,12.1-12.1,12.1H297V212.1
				c0-6.7-5.4-12.1-12.1-12.1H115.2c-6.7,0-12.1,5.4-12.1,12.1v109.1H90.9c-6.7,0-12.1-5.4-12.1-12.1V90.9c0-6.7,5.4-12.1,12.1-12.1
				h36.4v72.7c0,6.7,5.4,12.1,12.1,12.1h121.2c6.7,0,12.1-5.4,12.1-12.1V78.8h6.1l42.4,42.4V309.1z M260.6,284.8H139.4V297h121.2
				V284.8z M260.6,260.6H139.4v12.1h121.2V260.6z"/>
		</g>
	</g>
</g>
<g id="Layer_1" display="none">
	<g id="Floppy_Disk_2" display="inline">
		<g>
			<path fill="#FFFFFF" d="M224.2,139.4h24.2V90.9h-24.2V139.4z M212.1,236.4h-72.7v12.1h72.7V236.4z M321.2,103l-36.4-36.4H90.9
				c-13.4,0-24.2,10.9-24.2,24.2v218.2c0,13.4,10.9,24.2,24.2,24.2h218.2c13.4,0,24.2-10.8,24.2-24.2V115.2L321.2,103z M139.4,78.8
				h121.2v72.7H139.4V78.8z M284.8,321.2H115.2V212.1h169.7V321.2z M321.2,309.1c0,6.7-5.4,12.1-12.1,12.1H297V212.1
				c0-6.7-5.4-12.1-12.1-12.1H115.2c-6.7,0-12.1,5.4-12.1,12.1v109.1H90.9c-6.7,0-12.1-5.4-12.1-12.1V90.9c0-6.7,5.4-12.1,12.1-12.1
				h36.4v72.7c0,6.7,5.4,12.1,12.1,12.1h121.2c6.7,0,12.1-5.4,12.1-12.1V78.8h6.1l42.4,42.4V309.1z M260.6,284.8H139.4V297h121.2
				V284.8z M260.6,260.6H139.4v12.1h121.2V260.6z"/>
		</g>
	</g>
</g>
</svg>
